<svg xmlns="http://www.w3.org/2000/svg" id="_310831" width="32.923" height="42.072" data-name="310831" viewBox="0 0 32.923 42.072">
    <defs>
        <style>
            .cls-1{fill:#0191c6}
        </style>
    </defs>
    <g id="Group_68" data-name="Group 68" transform="translate(3.541 32.123)">
        <g id="Group_67" data-name="Group 67">
            <path id="Path_40" d="M10.532.741a5.227 5.227 0 0 1-5.921.886A5.394 5.394 0 0 1 2.79.214L.05 6.274a.512.512 0 0 0 .08.56A.512.512 0 0 0 .671 7l1.994-.555a2.541 2.541 0 0 1 2.973 1.342l.9 1.864a.527.527 0 0 0 .954-.012L11.85 0a3.27 3.27 0 0 0-1.318.741z" class="cls-1" data-name="Path 40"/>
        </g>
    </g>
    <g id="Group_70" data-name="Group 70" transform="translate(17.532 32.123)">
        <g id="Group_69" data-name="Group 69">
            <path id="Path_41" d="M11.8 6.274L9.061.214a5.392 5.392 0 0 1-1.822 1.414A5.227 5.227 0 0 1 1.318.741 3.27 3.27 0 0 0 0 0l4.358 9.639a.527.527 0 0 0 .954.012l.9-1.864a2.541 2.541 0 0 1 2.973-1.343L11.179 7a.527.527 0 0 0 .621-.725z" class="cls-1" data-name="Path 41"/>
        </g>
    </g>
    <g id="Group_72" data-name="Group 72">
        <g id="Group_71" data-name="Group 71">
            <path id="Path_42" d="M31.484 17.075a5.348 5.348 0 0 1-1.607-7.042 3.3 3.3 0 0 0-3.833-4.807 5.348 5.348 0 0 1-6.508-3.134 3.3 3.3 0 0 0-6.148 0A5.348 5.348 0 0 1 6.88 5.225a3.3 3.3 0 0 0-3.833 4.807 5.348 5.348 0 0 1-1.607 7.042 3.3 3.3 0 0 0 1.368 5.994 5.348 5.348 0 0 1 4.5 5.647 3.3 3.3 0 0 0 5.539 2.668 5.348 5.348 0 0 1 7.223 0 3.3 3.3 0 0 0 5.539-2.668 5.348 5.348 0 0 1 4.5-5.647 3.3 3.3 0 0 0 1.368-5.994zM16.462 27.6a10.815 10.815 0 1 1 10.815-10.812A10.828 10.828 0 0 1 16.462 27.6z" class="cls-1" data-name="Path 42"/>
        </g>
    </g>
    <g id="Group_74" data-name="Group 74" transform="translate(7.663 7.989)">
        <g id="Group_73" data-name="Group 73">
            <path id="Path_43" d="M8.8 0a8.8 8.8 0 1 0 8.8 8.8A8.809 8.809 0 0 0 8.8 0zm4.509 7.946l-5.476 4a1.008 1.008 0 0 1-1.42-.235L4.774 9.379a1.008 1.008 0 1 1 1.65-1.159l1.048 1.491 4.647-3.394a1.008 1.008 0 1 1 1.189 1.628z" class="cls-1" data-name="Path 43"/>
        </g>
    </g>
</svg>
