<svg xmlns="http://www.w3.org/2000/svg" width="42.059" height="41.967" viewBox="0 0 42.059 41.967">
    <defs>
        <style>
            .cls-1{fill:#0191c6}
        </style>
    </defs>
    <g id="_64583" data-name="64583" transform="translate(0 -.05)">
        <g id="Group_75" data-name="Group 75" transform="translate(0 .05)">
            <path id="Path_44" d="M6.47 29.154V11.062H3.7A3.712 3.712 0 0 0 0 14.784v24.461a3.7 3.7 0 0 0 3.7 3.707h24.46a3.724 3.724 0 0 0 3.73-3.707v-2.672h-18a7.456 7.456 0 0 1-7.42-7.419z" class="cls-1" data-name="Path 44" transform="translate(0 -.986)"/>
            <path id="Path_45" d="M39.3.05H14.834a3.718 3.718 0 0 0-3.721 3.707v24.462a3.729 3.729 0 0 0 3.721 3.721H39.3a3.717 3.717 0 0 0 3.7-3.721V3.758A3.706 3.706 0 0 0 39.3.05zm-.5 26.114a1.154 1.154 0 0 1-1.025.6H16.807a1.15 1.15 0 0 1-1.115-1.487l3-9.918a1.787 1.787 0 0 1 3.168-.516l4.193 5.89a1.786 1.786 0 0 0 2.461.443l3.861-2.622a1.788 1.788 0 0 1 2.5.5l3.87 5.922a1.153 1.153 0 0 1 .048 1.188z" class="cls-1" data-name="Path 45" transform="translate(-.944 -.05)"/>
        </g>
    </g>
</svg>
