<svg xmlns="http://www.w3.org/2000/svg" width="36.431" height="35.159" viewBox="0 0 36.431 35.159">
    <defs>
        <style>
            .cls-1{fill:#c60138}
        </style>
    </defs>
    <g id="gh">
        <g id="Group_41" data-name="Group 41">
            <path id="Path_20" d="M154.448 352.518q-.38.071-.332.356t.427.19q.38-.095.332-.332-.048-.262-.427-.214z" class="cls-1" data-name="Path 20" transform="translate(-141.308 -324.498)"/>
            <path id="Path_21" d="M137.709 354.815c-.253 0-.379.086-.379.261q0 .308.4.261.38 0 .38-.261.003-.309-.401-.261z" class="cls-1" data-name="Path 21" transform="translate(-125.921 -326.605)"/>
            <path id="Path_22" d="M119.43 351.911q-.095.261.308.356.356.142.451-.142.071-.261-.308-.38c-.238-.063-.388-.009-.451.166z" class="cls-1" data-name="Path 22" transform="translate(-109.492 -323.773)"/>
            <path id="Path_23" d="M34.427 1.934A6.7 6.7 0 0 0 29.6 0H6.831A6.7 6.7 0 0 0 2 1.934a6.241 6.241 0 0 0-2 4.658v21.975a6.24 6.24 0 0 0 2 4.658 6.7 6.7 0 0 0 4.827 1.934h5.313a6.645 6.645 0 0 0 .783-.034.926.926 0 0 0 .522-.3 1.043 1.043 0 0 0 .261-.767l-.012-1.557q-.012-1.489-.012-2.358l-.546.092a7.23 7.23 0 0 1-1.316.08 10.485 10.485 0 0 1-1.648-.16 3.761 3.761 0 0 1-1.589-.686 2.911 2.911 0 0 1-1.043-1.408l-.24-.525a5.686 5.686 0 0 0-.747-1.167 2.837 2.837 0 0 0-1.032-.87l-.166-.114a1.722 1.722 0 0 1-.308-.275 1.267 1.267 0 0 1-.213-.32q-.071-.161.119-.264a1.592 1.592 0 0 1 .688-.1l.474.069a3.514 3.514 0 0 1 1.174.549 3.75 3.75 0 0 1 1.15 1.19 4.086 4.086 0 0 0 1.321 1.428 2.86 2.86 0 0 0 1.553.493 6.975 6.975 0 0 0 1.352-.114 4.841 4.841 0 0 0 1.067-.344 3.661 3.661 0 0 1 1.162-2.358 16.775 16.775 0 0 1-2.431-.412 9.887 9.887 0 0 1-2.229-.893 6.336 6.336 0 0 1-1.91-1.534 7.279 7.279 0 0 1-1.245-2.4 11.061 11.061 0 0 1-.486-3.434 6.549 6.549 0 0 1 1.874-4.715 5.956 5.956 0 0 1 .166-4.669 3.431 3.431 0 0 1 2.04.309 14.549 14.549 0 0 1 1.98.881q.629.366 1.008.618a17.722 17.722 0 0 1 9.108 0l.9-.549a12.965 12.965 0 0 1 2.184-1.011 3.209 3.209 0 0 1 1.921-.252 5.9 5.9 0 0 1 .189 4.669 6.549 6.549 0 0 1 1.874 4.715 11.166 11.166 0 0 1-.486 3.445 6.984 6.984 0 0 1-1.257 2.4 6.588 6.588 0 0 1-1.921 1.522 9.874 9.874 0 0 1-2.23.892 16.763 16.763 0 0 1-2.431.413 4 4 0 0 1 1.233 3.25v5.476a1.428 1.428 0 0 0 .118.629.647.647 0 0 0 .38.332 2.164 2.164 0 0 0 .463.114 5.516 5.516 0 0 0 .581.023H29.6a6.7 6.7 0 0 0 4.826-1.934 6.241 6.241 0 0 0 2-4.658V6.592a6.242 6.242 0 0 0-1.999-4.658z" class="cls-1" data-name="Path 23"/>
            <path id="Path_24" d="M85.992 318.564q-.166.118.048.379.238.237.38.071.166-.118-.048-.38-.237-.212-.38-.07z" class="cls-1" data-name="Path 24" transform="translate(-78.782 -292.986)"/>
            <path id="Path_25" d="M77.193 311.235q-.071.166.166.285a.2.2 0 0 0 .308-.047q.071-.166-.166-.285-.237-.072-.308.047z" class="cls-1" data-name="Path 25" transform="translate(-70.765 -286.224)"/>
            <path id="Path_26" d="M94.467 329.687q-.214.118 0 .427t.4.166q.214-.166 0-.451c-.124-.205-.258-.253-.4-.142z" class="cls-1" data-name="Path 26" transform="translate(-86.521 -303.22)"/>
            <path id="Path_27" d="M104.676 342.166c-.142.127-.111.276.095.451q.284.284.474.071.19-.189-.095-.45-.284-.285-.474-.072z" class="cls-1" data-name="Path 27" transform="translate(-95.9 -314.669)"/>
        </g>
    </g>
</svg>
