<svg xmlns="http://www.w3.org/2000/svg" id="_281764" width="51.365" height="51.365" data-name="281764" viewBox="0 0 51.365 51.365">
    <defs>
        <style>
            .cls-1{fill:#fbbb00}.cls-2{fill:#518ef8}.cls-3{fill:#28b446}.cls-4{fill:#f14336}
        </style>
    </defs>
    <path id="Path_8" d="M11.384 155.437L9.6 162.112l-6.535.138a25.727 25.727 0 0 1-.189-23.982l5.818 1.067 2.549 5.783a15.327 15.327 0 0 0 .144 10.32z" class="cls-1" data-name="Path 8" transform="translate(0 -124.397)"/>
    <path id="Path_9" d="M286.3 208.176A25.673 25.673 0 0 1 277.142 233l-7.328-.374-1.037-6.474a15.307 15.307 0 0 0 6.586-7.816h-13.735v-10.16H286.3z" class="cls-2" data-name="Path 9" transform="translate(-235.381 -187.291)"/>
    <path id="Path_10" d="M69.208 324.078a25.691 25.691 0 0 1-38.7-7.857l8.323-6.813a15.274 15.274 0 0 0 22.011 7.82z" class="cls-3" data-name="Path 10" transform="translate(-27.448 -278.368)"/>
    <path id="Path_11" d="M67.828 5.913l-8.32 6.812a15.272 15.272 0 0 0-22.516 8l-8.367-6.85a25.688 25.688 0 0 1 39.2-7.959z" class="cls-4" data-name="Path 11" transform="translate(-25.752)"/>
</svg>
