<svg xmlns="http://www.w3.org/2000/svg" width="36.43" height="35.159" viewBox="0 0 36.43 35.159">
    <defs>
        <style>
            .cls-1{fill:#c60138}
        </style>
    </defs>
    <g id="lin">
        <path id="Path_19" d="M34.429 1.934A6.7 6.7 0 0 0 29.6 0H6.834a6.7 6.7 0 0 0-4.827 1.934A6.241 6.241 0 0 0 0 6.592v21.975a6.242 6.242 0 0 0 2 4.658 6.7 6.7 0 0 0 4.827 1.934H29.6a6.7 6.7 0 0 0 4.826-1.934 6.241 6.241 0 0 0 2-4.658V6.592a6.242 6.242 0 0 0-1.997-4.658zM11.1 29.436H5.624V13.551H11.1v15.885zm-.5-18.827a3.187 3.187 0 0 1-2.253.79h-.019a3.077 3.077 0 0 1-2.194-.79 2.574 2.574 0 0 1-.842-1.957 2.534 2.534 0 0 1 .866-1.969A3.226 3.226 0 0 1 8.4 5.905a3.1 3.1 0 0 1 2.206.778 2.66 2.66 0 0 1 .854 1.969 2.56 2.56 0 0 1-.855 1.958zm20.213 18.827h-5.479v-8.492q0-3.593-2.751-3.594a2.747 2.747 0 0 0-1.755.561 3.538 3.538 0 0 0-1.067 1.362 3.653 3.653 0 0 0-.166 1.281v8.881h-5.48q.071-14.375 0-15.886h5.479v2.243a5.551 5.551 0 0 1 4.91-2.609 6.046 6.046 0 0 1 4.578 1.808 7.43 7.43 0 0 1 1.731 5.333v9.111z" class="cls-1" data-name="Path 19" transform="translate(-.003)"/>
    </g>
</svg>
