<svg xmlns="http://www.w3.org/2000/svg" width="29.068" height="41.963" viewBox="0 0 29.068 41.963">
    <defs>
        <style>
            .cls-1{fill:#0191c6;opacity:.9}
        </style>
    </defs>
    <path id="music" d="M90.625 26.869a18.2 18.2 0 0 0 2.337-7.856 10.713 10.713 0 0 0-1.13-5.323c-1.327-2.718-3.606-4.245-5.808-5.72a16.419 16.419 0 0 1-4.294-3.625l-.2-.265a7.146 7.146 0 0 1-1.5-2.689A1.632 1.632 0 0 0 78.326 0a1.61 1.61 0 0 0-1.5 1.608v28.765a9.338 9.338 0 0 0-4.842-1.324c-4.448 0-8.071 2.9-8.071 6.456s3.622 6.456 8.071 6.456 8.071-2.9 8.071-6.456V16.692a11.619 11.619 0 0 1 7.483 8.8 9.106 9.106 0 0 1-.623.881 1.613 1.613 0 1 0 2.419 2.127 12 12 0 0 0 1.185-1.666c.039-.044.074.09.106.035z" class="cls-1" transform="translate(-63.912)"/>
</svg>
