<svg xmlns="http://www.w3.org/2000/svg" width="41.238" height="38.469" viewBox="0 0 41.238 38.469">
    <defs>
        <style>
            .cls-1{fill:#0191c6}
        </style>
    </defs>
    <g id="photolove" transform="translate(0 -1.55)">
        <g id="Group_66" data-name="Group 66" transform="translate(0 1.55)">
            <path id="Path_37" d="M37.524 12.19h-6.549v-6.9a3.717 3.717 0 0 0-3.712-3.74H14.124a3.737 3.737 0 0 0-3.735 3.741v6.9H3.763A3.785 3.785 0 0 0 0 15.96v20.311a3.766 3.766 0 0 0 3.763 3.747h33.761a3.724 3.724 0 0 0 3.713-3.747V15.96a3.743 3.743 0 0 0-3.713-3.77zM16.658 5.139h8.07a2.235 2.235 0 1 1 0 4.47h-8.07a2.235 2.235 0 1 1 0-4.47zM5.949 16.727a2.308 2.308 0 1 1 2.308 2.308 2.308 2.308 0 0 1-2.308-2.308zM20.61 36.781A10.777 10.777 0 1 1 31.388 26 10.778 10.778 0 0 1 20.61 36.781z" class="cls-1" data-name="Path 37" transform="translate(0 -1.55)"/>
            <path id="Path_38" d="M22.337 24.974a3.617 3.617 0 0 0-5.1 5.125l4.654 4.633a.64.64 0 0 0 .9 0c1.234-1.228 4.586-4.563 4.654-4.633a3.616 3.616 0 0 0-5.1-5.125z" class="cls-1" data-name="Path 38" transform="translate(-1.727 -3.939)"/>
        </g>
    </g>
</svg>
