<svg xmlns="http://www.w3.org/2000/svg" width="44.924" height="38.012" viewBox="0 0 44.924 38.012">
    <defs>
        <style>
            .cls-1{fill:#c60139}
        </style>
    </defs>
    <g id="quote" transform="translate(0 -36.547)">
        <g id="Group_40" data-name="Group 40" transform="translate(0 36.547)">
            <path id="Path_13" d="M15.551 36.547H5.184a5 5 0 0 0-3.672 1.512A5 5 0 0 0 0 41.731V52.1a5 5 0 0 0 1.512 3.671 5 5 0 0 0 3.672 1.509h6.047a2.581 2.581 0 0 1 2.592 2.592v.863a6.659 6.659 0 0 1-2.023 4.887 6.66 6.66 0 0 1-4.887 2.024H5.184a1.662 1.662 0 0 0-1.215.513 1.66 1.66 0 0 0-.513 1.215v3.456a1.662 1.662 0 0 0 .513 1.215 1.663 1.663 0 0 0 1.215.513h1.727a13.47 13.47 0 0 0 5.359-1.094 13.925 13.925 0 0 0 4.414-2.956 13.93 13.93 0 0 0 2.956-4.414 13.466 13.466 0 0 0 1.093-5.359V41.73a5.161 5.161 0 0 0-5.183-5.183z" class="cls-1" data-name="Path 13" transform="translate(0 -36.547)"/>
            <path id="Path_14" d="M275.038 38.059a5 5 0 0 0-3.672-1.512H261a5.161 5.161 0 0 0-5.183 5.184V52.1A5.161 5.161 0 0 0 261 57.28h6.047a2.581 2.581 0 0 1 2.592 2.592v.863a6.913 6.913 0 0 1-6.911 6.911H261a1.753 1.753 0 0 0-1.728 1.728v3.456A1.753 1.753 0 0 0 261 74.559h1.728a13.47 13.47 0 0 0 5.359-1.094 13.693 13.693 0 0 0 7.37-7.37 13.466 13.466 0 0 0 1.093-5.359V41.73a5 5 0 0 0-1.512-3.671z" class="cls-1" data-name="Path 14" transform="translate(-231.627 -36.547)"/>
        </g>
    </g>
</svg>
