<svg xmlns="http://www.w3.org/2000/svg" width="27.5" height="44.001" viewBox="0 0 27.5 44.001">
    <defs>
        <style>
            .cls-1{fill:#0191c6}
        </style>
    </defs>
    <g id="tl" transform="translate(0 .001)">
        <path id="Path_50" d="M83.947 91a1.371 1.371 0 0 1-.972-.4L77.2 84.822a1.375 1.375 0 0 1-.4-.972v-2.475A1.375 1.375 0 0 1 78.172 80h11.551a1.375 1.375 0 0 1 1.377 1.375v2.475a1.375 1.375 0 0 1-.4.972L84.919 90.6a1.369 1.369 0 0 1-.972.4zm-4.4-7.72l4.4 4.4 4.4-4.4v-.53h-8.8zm0 0" class="cls-1" data-name="Path 50" transform="translate(-70.197 -73.126)"/>
        <path id="Path_51" d="M26.125 41.25H24.75v-9.625a1.375 1.375 0 0 0-.4-.972L15.695 22l8.653-8.653a1.375 1.375 0 0 0 .4-.972V2.749h1.375a1.375 1.375 0 0 0 0-2.75H1.375a1.375 1.375 0 0 0 0 2.75H2.75v9.625a1.375 1.375 0 0 0 .4.972L11.806 22l-8.653 8.652a1.375 1.375 0 0 0-.4.972v9.626H1.375a1.375 1.375 0 0 0 0 2.75h24.75a1.375 1.375 0 0 0 0-2.75zM5.5 2.749H22V11.8l-8.25 8.25L5.5 11.8zm0 29.445l8.25-8.25 8.25 8.25v9.056H5.5zm0 0" class="cls-1" data-name="Path 51"/>
        <path id="Path_52" d="M145.375 312.25a1.375 1.375 0 0 1-1.375-1.375v-5.5a1.375 1.375 0 1 1 2.75 0v5.5a1.375 1.375 0 0 1-1.375 1.375zm0 0" class="cls-1" data-name="Path 52" transform="translate(-131.625 -277.875)"/>
    </g>
</svg>
