<svg xmlns="http://www.w3.org/2000/svg" id="tw" width="35.833" height="35.833" viewBox="0 0 35.833 35.833">
    <defs>
        <style>
            .cls-1{fill:#c60138}
        </style>
    </defs>
    <path id="Path_28" d="M33.864 1.971A6.47 6.47 0 0 0 29.117 0H6.722a6.472 6.472 0 0 0-4.748 1.971A6.472 6.472 0 0 0 0 6.719v22.4a6.473 6.473 0 0 0 1.971 4.748 6.472 6.472 0 0 0 4.748 1.971h22.4a6.731 6.731 0 0 0 6.718-6.719v-22.4a6.473 6.473 0 0 0-1.973-4.748zm-6.45 11.816a6.185 6.185 0 0 1 .024.63 14.116 14.116 0 0 1-2.321 7.71 14.7 14.7 0 0 1-2.811 3.2 12.617 12.617 0 0 1-3.919 2.216 14.263 14.263 0 0 1-4.9.829 13.748 13.748 0 0 1-7.512-2.193 9.454 9.454 0 0 0 1.166.07 9.679 9.679 0 0 0 6.089-2.1 4.648 4.648 0 0 1-2.834-.98 4.979 4.979 0 0 1-1.738-2.426 6.569 6.569 0 0 0 .91.093 4.56 4.56 0 0 0 1.19-.186 4.9 4.9 0 0 1-2.869-1.691 4.658 4.658 0 0 1-1.167-3.114v-.047a5.785 5.785 0 0 0 2.333.606 4.621 4.621 0 0 1-2.123-4.083 4.852 4.852 0 0 1 .676-2.473 13.886 13.886 0 0 0 4.479 3.616 13.87 13.87 0 0 0 5.646 1.516 4.5 4.5 0 0 1-.117-1.12 4.9 4.9 0 0 1 4.9-4.9 4.656 4.656 0 0 1 3.57 1.54 9.745 9.745 0 0 0 3.126-1.19 4.764 4.764 0 0 1-2.169 2.729 10.385 10.385 0 0 0 2.822-.793 9.527 9.527 0 0 1-2.451 2.541z" class="cls-1" data-name="Path 28" transform="translate(-.003)"/>
</svg>
